HIERARCHY
ROOT Hips
{
	OFFSET 0.000000 0.000000 0.000000
	CHANNELS 6 Xposition Yposition Zposition Xrotation Yrotation Zrotation
	JOINT LeftUpLeg_virtual
	{
		OFFSET 0.000000 0.000000 0.000000
		CHANNELS 3 Xrotation Yrotation Zrotation
		JOINT LeftUpLeg
		{
			OFFSET 11.394100 -6.187798 -0.413800
			CHANNELS 3 Xrotation Yrotation Zrotation
			JOINT LeftLeg
			{
				OFFSET 0.430247 -32.302673 3.732800
				CHANNELS 3 Xrotation Yrotation Zrotation
				JOINT LeftFoot
				{
					OFFSET -0.430247 -48.264931 -6.423300
					CHANNELS 3 Xrotation Yrotation Zrotation
					JOINT LeftToeBase
					{
						OFFSET 4.230900 -16.068199 23.438400
						CHANNELS 3 Xrotation Yrotation Zrotation
						JOINT LeftToe_End
						{
							OFFSET 4.510700 0.695400 19.974600
							CHANNELS 3 Xrotation Yrotation Zrotation
							End Site
							{
								OFFSET 0 0 0
							}
						}
					}
				}
			}
		}
	}
	JOINT RightUpLeg_virtual
	{
		OFFSET 0.000000 0.000000 0.000000
		CHANNELS 3 Xrotation Yrotation Zrotation
		JOINT RightUpLeg
		{
			OFFSET -11.333700 -6.187798 -0.413800
			CHANNELS 3 Xrotation Yrotation Zrotation
			JOINT RightLeg
			{
				OFFSET -0.430392 -32.302628 3.733000
				CHANNELS 3 Xrotation Yrotation Zrotation
				JOINT RightFoot
				{
					OFFSET 0.430392 -48.264973 -6.423500
					CHANNELS 3 Xrotation Yrotation Zrotation
					JOINT RightToeBase
					{
						OFFSET -4.230900 -16.068199 23.438400
						CHANNELS 3 Xrotation Yrotation Zrotation
						JOINT RightToe_End
						{
							OFFSET -4.510700 0.695400 19.974600
							CHANNELS 3 Xrotation Yrotation Zrotation
							End Site
							{
								OFFSET 0 0 0
							}
						}
					}
				}
			}
		}
	}
	JOINT Spine_virtual
	{
		OFFSET 0.000000 0.000000 0.000000
		CHANNELS 3 Xrotation Yrotation Zrotation
		JOINT Spine
		{
			OFFSET -0.002400 12.777504 0.315300
			CHANNELS 3 Xrotation Yrotation Zrotation
			JOINT Spine1
			{
				OFFSET -0.002067 5.816869 0.032633
				CHANNELS 3 Xrotation Yrotation Zrotation
				JOINT Spine1_split
				{
					OFFSET -0.002067 5.816869 0.032633
					CHANNELS 3 Xrotation Yrotation Zrotation
					JOINT Spine2
					{
						OFFSET -0.002067 5.816869 0.032633
						CHANNELS 3 Xrotation Yrotation Zrotation
						JOINT Neck_virtual
						{
							OFFSET 0.000000 0.000000 0.000000
							CHANNELS 3 Xrotation Yrotation Zrotation
							JOINT Neck
							{
								OFFSET -0.003700 21.199493 -0.826900
								CHANNELS 3 Xrotation Yrotation Zrotation
								JOINT Head
								{
									OFFSET 0.000000 20.442200 4.834800
									CHANNELS 3 Xrotation Yrotation Zrotation
									JOINT HeadTop_End
									{
										OFFSET 0.000000 34.668396 4.968400
										CHANNELS 3 Xrotation Yrotation Zrotation
										End Site
										{
											OFFSET 0 0 0
										}
									}
								}
							}
						}
						JOINT LeftShoulder_virtual
						{
							OFFSET 0.000000 0.000000 0.000000
							CHANNELS 3 Xrotation Yrotation Zrotation
							JOINT LeftShoulder
							{
								OFFSET 3.288150 8.794197 -1.372250
								CHANNELS 3 Xrotation Yrotation Zrotation
								JOINT LeftShoulder_split
								{
									OFFSET 3.288150 8.794197 -1.372250
									CHANNELS 3 Xrotation Yrotation Zrotation
									JOINT LeftArm
									{
										OFFSET 11.953299 -2.279007 -0.146200
										CHANNELS 3 Xrotation Yrotation Zrotation
										JOINT LeftForeArm
										{
											OFFSET 18.448900 0.000000 0.000000
											CHANNELS 3 Xrotation Yrotation Zrotation
											JOINT LeftHand
											{
												OFFSET 29.527798 0.000000 0.000000
												CHANNELS 3 Xrotation Yrotation Zrotation
												End Site
												{
													OFFSET 0 0 0
												}
											}
										}
									}
								}
							}
						}
						JOINT RightShoulder_virtual
						{
							OFFSET 0.000000 0.000000 0.000000
							CHANNELS 3 Xrotation Yrotation Zrotation
							JOINT RightShoulder
							{
								OFFSET -3.249400 8.794197 -1.372250
								CHANNELS 3 Xrotation Yrotation Zrotation
								JOINT RightShoulder_split
								{
									OFFSET -3.249400 8.794197 -1.372250
									CHANNELS 3 Xrotation Yrotation Zrotation
									JOINT RightArm
									{
										OFFSET -11.953299 -2.279007 -0.146200
										CHANNELS 3 Xrotation Yrotation Zrotation
										JOINT RightForeArm
										{
											OFFSET -18.448900 0.000000 0.000000
											CHANNELS 3 Xrotation Yrotation Zrotation
											JOINT RightHand
											{
												OFFSET -29.527802 0.000000 0.000000
												CHANNELS 3 Xrotation Yrotation Zrotation
												End Site
												{
													OFFSET 0 0 0
												}
											}
										}
									}
								}
							}
						}
					}
				}
			}
		}
	}
}
MOTION
Frames: 5
Frame Time: 0.03333333
1.076861 88.239105 24.679428 0.000000 0.000000 0.000000 6.187614 -48.613926 3.427647 -4.924409 12.950688 -5.950370 45.112693 4.400038 -5.711460 -31.402683 -10.128200 17.621796 -4.324475 -11.186176 -5.757135 0.000000 0.000000 0.000000 5.790080 -48.054568 2.978679 -68.237333 -4.121933 3.737748 27.115539 1.843001 -5.307164 24.917201 6.342375 8.680244 2.990407 -4.998726 -0.150860 0.000000 0.000000 0.000000 5.169927 -44.580146 2.976055 15.288636 -6.917955 2.793944 5.654964 -5.841016 2.421495 -0.465870 -2.434570 1.045160 0.000000 0.000000 0.000000 -2.935465 -5.159875 1.384502 2.275263 39.222655 -10.646708 0.104311 27.100060 -6.906671 0.000000 0.000000 0.000000 -1.927727 -6.479258 1.784755 1.050308 -3.245315 -3.194398 -1.629136 2.899393 -2.502871 -0.807738 -2.825922 -27.958304 -0.813674 -26.595452 -1.789958 0.000000 0.000000 0.000000 -3.620516 -6.063099 2.642866 9.758663 -12.560694 3.326818 0.835585 2.962236 -1.142401 2.136655 5.554343 77.759689 -6.457874 11.373216 6.051416 0.000000 0.000000 0.000000 
2.656306 88.758141 22.891018 0.000000 0.000000 0.000000 7.095179 -52.964156 4.405223 -5.909316 12.636909 -7.506136 43.268046 4.422363 -5.311923 -32.145578 -11.656293 17.828105 -2.629290 -11.978258 -3.632836 0.000000 0.000000 0.000000 5.674285 -51.030304 3.520054 -65.050838 -4.261739 3.058514 28.906443 1.622189 -5.485310 24.156613 6.400488 8.236727 5.703798 -3.915918 0.772619 0.000000 0.000000 0.000000 5.477084 -47.929807 3.456262 15.328835 -6.522225 2.063061 4.838907 -5.336797 2.411299 -0.355654 -2.282455 0.845481 0.000000 0.000000 0.000000 -3.929535 -4.533735 1.412752 2.875050 39.622614 -11.054621 0.853311 27.025949 -7.659215 0.000000 0.000000 0.000000 -2.749342 -5.887255 1.943831 0.879345 -2.184778 -3.040348 -0.196130 4.136617 -2.844355 -5.788094 -4.312938 -28.523222 -0.281953 -31.250800 -1.871695 0.000000 0.000000 0.000000 -4.526521 -5.571164 2.646348 10.250680 -11.594575 3.396419 -0.018277 3.687902 -1.790124 3.859719 11.104746 74.375016 -4.975117 15.016615 7.537555 0.000000 0.000000 0.000000 
3.909050 89.061073 21.065830 0.000000 0.000000 0.000000 8.586144 -57.019751 6.089829 -7.757427 12.769739 -8.240486 43.302829 5.247386 -5.057797 -32.526375 -12.152165 17.190584 -1.314725 -12.859669 -2.359712 0.000000 0.000000 0.000000 5.739834 -54.228611 4.402670 -62.218297 -3.863850 2.472776 31.462556 1.741261 -5.689665 24.716221 6.565168 8.236945 6.801180 -3.057226 1.738829 0.000000 0.000000 0.000000 5.587374 -51.122231 4.000770 15.620837 -5.994950 1.682447 4.151687 -4.697069 2.355065 -0.042894 -2.153331 0.904374 0.000000 0.000000 0.000000 -4.797867 -3.872407 1.425320 4.144165 39.824128 -11.883866 1.163714 26.648362 -8.222228 0.000000 0.000000 0.000000 -3.337958 -5.181687 1.987814 0.806944 -1.273135 -3.226640 1.372183 4.749733 -2.645333 -9.155596 -5.557098 -29.247181 -0.378918 -34.966467 -2.184310 0.000000 0.000000 0.000000 -5.141395 -4.923734 2.551617 10.594898 -10.327150 4.022676 -0.890227 3.887708 -2.284246 5.967602 14.622441 70.312296 -3.030629 19.676802 8.760934 0.000000 0.000000 0.000000 
4.778784 89.528893 19.078772 0.000000 0.000000 0.000000 9.954527 -60.623803 7.957748 -9.877360 12.853146 -8.634625 43.641033 6.672519 -4.623096 -32.638189 -11.146150 15.587987 2.178285 -13.671886 -1.541390 0.000000 0.000000 0.000000 5.651523 -57.610556 5.223671 -59.585785 -3.219521 1.814346 33.812657 1.930939 -5.926102 25.615634 6.722521 8.391532 6.555195 -2.413978 2.840933 0.000000 0.000000 0.000000 5.080726 -54.033056 4.260030 16.034117 -5.327397 1.603194 3.560826 -3.929995 2.172583 0.046500 -2.491320 0.970406 0.000000 0.000000 0.000000 -5.452272 -3.173625 1.360958 5.943362 39.877861 -12.919877 1.240058 26.078535 -8.691741 0.000000 0.000000 0.000000 -3.723286 -4.395561 1.847398 0.793425 -0.549707 -3.827998 2.733103 4.657332 -2.109612 -10.921636 -6.802432 -29.891876 -1.221322 -38.358062 -2.791312 0.000000 0.000000 0.000000 -5.463610 -4.166683 2.295274 10.714539 -8.878238 5.077362 -1.513838 3.552505 -2.916397 7.458545 15.841123 65.890295 -0.859261 24.503690 9.480464 0.000000 0.000000 0.000000 
5.360492 90.268829 16.902208 0.000000 0.000000 0.000000 10.779870 -63.664453 9.414030 -11.246833 12.522389 -9.050858 42.307421 8.286245 -3.787715 -32.891937 -9.416684 13.430836 3.730224 -14.553919 0.742027 0.000000 0.000000 0.000000 5.582666 -60.653760 5.843560 -57.167362 -2.473441 0.954215 35.488471 1.962428 -6.198568 25.854481 6.765790 8.399530 5.926613 -1.910865 3.784707 0.000000 0.000000 0.000000 4.190323 -56.554578 4.110991 16.401974 -4.584163 1.720366 3.070862 -3.119552 1.824420 0.011898 -3.008774 1.001495 0.000000 0.000000 0.000000 -5.748592 -2.457935 1.203020 8.065471 39.767325 -13.932518 1.265704 25.480548 -9.174621 0.000000 0.000000 0.000000 -3.946262 -3.588556 1.537168 0.827442 0.041208 -4.783059 3.651989 4.024659 -1.376541 -11.160878 -7.857898 -30.324387 -2.743488 -42.480263 -3.748524 0.000000 0.000000 0.000000 -5.589179 -3.370781 1.893465 10.613781 -7.409317 6.363398 -1.780345 2.688107 -3.472314 7.711214 15.390411 61.893385 1.373670 29.104802 9.594850 0.000000 0.000000 0.000000 
